 http://desibbrg.org/images/66952052392581364616.gif 
http://desibbrg.org/images/09705332623815001370.jpg 
http://desibbrg.org/images/29435033891412213051.png 
http://desibbrg.org/images/39078678123175116308.png 
http://desibbrg.org/images/59303906277602709466.png 
http://desibbrg.org/images/24100959221709643326.png

Media Info - 
Video
Format : MPEG Video
Format version : Version 2
Format profile : Main@Main
Format settings, BVOP : Yes
Format settings, Matrix : Default
Duration : 2h 5mn
Bit rate mode : Variable
Bit rate : 620 Kbps
Maximum bit rate : 9 680 Kbps
Width : 352 pixels
Height : 288 pixels
Display aspect ratio : 4:3
Frame rate : 25.000 fps
Standard : PAL
Color space : YUV
Chroma subsampling : 4:2:0
Bit depth : 8 bits
Scan type : Progressive
Compression mode : Lossy
Bits/(Pixel*Frame) : 0.245
Stream size : 556 MiB (81%)

Audio
Format : MPEG Audio
Format version : Version 1
Format profile : Layer 2
Duration : 2h 5mn
Bit rate mode : Constant
Bit rate : 128 Kbps
Channel(s) : 2 channels
Sampling rate : 48.0 KHz
Compression mode : Lossy
Stream size : 115 MiB (17%)

Sharer : TJ_DA_King

Seeding 24x7... Extreme Seeding...


Enjoy!
